<svg xmlns="http://www.w3.org/2000/svg" xmlns:xlink="http://www.w3.org/1999/xlink" width="500" zoomAndPan="magnify" viewBox="0 0 375 374.999991" height="500" preserveAspectRatio="xMidYMid meet" version="1.0"><defs><g/></defs><g fill="#ffffff" fill-opacity="1"><g transform="translate(101.166238, 241.461424)"><g><path d="M 132.3125 -152.984375 C 136.1875 -155.597656 140.796875 -157.644531 146.140625 -159.125 C 151.492188 -160.601562 155.820312 -161.34375 159.125 -161.34375 C 162.425781 -161.34375 164.53125 -161.34375 165.4375 -161.34375 L 165.4375 -159.640625 C 160.09375 -159.410156 155.085938 -158.351562 150.421875 -156.46875 C 145.753906 -154.59375 141.910156 -152.429688 138.890625 -149.984375 C 135.878906 -147.535156 132.945312 -144.289062 130.09375 -140.25 C 127.25 -136.21875 125.054688 -132.773438 123.515625 -129.921875 C 121.984375 -127.078125 120.195312 -123.4375 118.15625 -119 L 70.6875 -15.203125 C 66.476562 -5.972656 64.375 -0.109375 64.375 2.390625 L 62.828125 2.390625 L 14.859375 -107.046875 C 13.265625 -110.691406 11.070312 -113.394531 8.28125 -115.15625 C 5.488281 -116.925781 2.671875 -117.8125 -0.171875 -117.8125 L -1.53125 -117.8125 L -1.53125 -119.515625 L 36.875 -119.515625 L 36.875 -117.8125 L 35.34375 -117.8125 C 31.925781 -117.8125 29.648438 -116.21875 28.515625 -113.03125 C 28.285156 -112.34375 28.171875 -111.539062 28.171875 -110.625 C 28.171875 -109.71875 28.457031 -108.582031 29.03125 -107.21875 L 64.703125 -17.75 L 107.046875 -119 C 113.765625 -134.820312 122.1875 -146.148438 132.3125 -152.984375 Z M 132.3125 -152.984375 "/></g></g></g><g fill="#ffe5b6" fill-opacity="1"><g transform="translate(151.849639, 192.781307)"><g><path d="M 18.75 -41.90625 C 13.289062 -34.769531 10.5625 -27.050781 10.5625 -18.75 C 10.5625 -8.875 14.707031 -1.207031 23 4.25 C 27.832031 7.507812 33.320312 9.140625 39.46875 9.140625 C 45.613281 9.140625 50.945312 7.929688 55.46875 5.515625 C 63.96875 1.097656 68.742188 -6.304688 69.796875 -16.703125 C 69.898438 -17.429688 69.953125 -18.164062 69.953125 -18.90625 C 69.953125 -22.789062 68.875 -26.988281 66.71875 -31.5 C 64.570312 -36.019531 61.082031 -40.171875 56.25 -43.953125 L 27.890625 -66.328125 C 21.691406 -71.160156 18.59375 -77.410156 18.59375 -85.078125 C 18.59375 -92.742188 21.0625 -99.226562 26 -104.53125 C 30.9375 -109.84375 37.609375 -112.5 46.015625 -112.5 C 50.210938 -112.5 54.78125 -111.972656 59.71875 -110.921875 L 66.015625 -110.921875 L 66.328125 -91.546875 L 64.765625 -91.546875 C 64.648438 -96.585938 62.832031 -100.550781 59.3125 -103.4375 C 55.800781 -106.320312 51.390625 -107.765625 46.078125 -107.765625 C 40.773438 -107.765625 36.335938 -106.003906 32.765625 -102.484375 C 29.203125 -98.972656 27.421875 -94.457031 27.421875 -88.9375 C 27.421875 -83.425781 29.726562 -78.832031 34.34375 -75.15625 L 63.5 -52.15625 C 75.050781 -43.007812 80.828125 -31.976562 80.828125 -19.0625 C 80.828125 -9.394531 76.992188 -1.097656 69.328125 5.828125 C 62.710938 11.816406 53.890625 14.8125 42.859375 14.8125 C 36.128906 14.8125 30.140625 13.550781 24.890625 11.03125 C 15.015625 6.40625 9.082031 -1.472656 7.09375 -12.609375 C 6.78125 -14.285156 6.625 -16.410156 6.625 -18.984375 C 6.625 -21.554688 7.359375 -25.070312 8.828125 -29.53125 C 10.296875 -34 13.128906 -38.492188 17.328125 -43.015625 Z M 18.75 -41.90625 "/></g></g></g></svg>